#define basechicklet_width 16
#define basechicklet_height 16
static unsigned char basechicklet_bits[] = {
   0xfe, 0x7f, 0xff, 0xff, 0x07, 0xe0, 0xe3, 0xc3, 0x63, 0xc6, 0x63, 0xc6,
   0x63, 0xc6, 0xe3, 0xc3, 0x63, 0xc6, 0x63, 0xc6, 0x63, 0xc6, 0xe3, 0xc3,
   0x07, 0xe0, 0xff, 0xff, 0xfe, 0x7f, 0x00, 0x00};
